# 3ds Max Wavefront OBJ Exporter v0.97b - (c)2007 guruware
# File Created: 01.10.2012 10:17:45

mtllib edge_01.mtl

#
# object edge_01
#

v  -8.0066 10.6735 5.3378
v  -8.0066 -0.0022 5.3378
v  8.0069 -0.0022 5.3378
v  8.0069 10.6735 5.3378
v  8.0069 -0.0022 -5.3379
v  8.0069 10.6735 -5.3379
v  -8.0066 -0.0022 -5.3379
v  -8.0066 10.6735 -5.3379
v  1.1131 10.9671 -2.5782
v  1.1131 10.9671 2.5781
v  6.3602 10.9671 2.5781
v  6.3602 10.9671 -2.5782
v  -7.6917 10.6735 5.0229
v  7.6919 10.6735 5.0229
v  7.6919 10.6735 -5.0230
v  -7.6917 10.6735 -5.0230
v  -7.6917 10.1130 5.0229
v  7.6919 10.1130 5.0229
v  7.6919 10.1130 -5.0230
v  -7.6917 10.1130 -5.0230
v  6.3602 10.1130 2.5781
v  1.1131 10.1130 2.5781
v  6.3602 10.1130 -2.5782
v  1.1131 10.1130 -2.5782
v  8.3642 2.5693 -5.6952
v  7.9748 2.5693 -5.3059
v  -7.9746 2.5693 -5.3059
v  -8.3639 2.5693 -5.6952
v  8.3642 3.1965 -5.6952
v  -8.3639 3.1965 -5.6952
v  7.9748 3.1965 -5.3059
v  -7.9746 3.1965 -5.3059
v  8.3642 2.5693 5.6951
v  7.9748 2.5693 5.3058
v  -7.9746 2.5693 5.3058
v  -8.3639 2.5693 5.6951
v  -8.3639 3.1965 5.6951
v  -7.9746 3.1965 5.3058
v  8.3642 3.1965 5.6951
v  7.9748 3.1965 5.3058
# 40 vertices

vn 0.0000 0.0000 1.0000
vn 1.0000 0.0000 -0.0000
vn 0.0000 0.0000 -1.0000
vn -1.0000 0.0000 -0.0000
vn 0.0000 1.0000 -0.0000
vn 0.0000 -1.0000 -0.0000
vn 0.0000 -0.7093 -0.7049
vn 0.0000 0.7093 -0.7049
vn 0.0000 -0.7093 0.7049
vn 0.0000 0.7093 0.7049
# 10 vertex normals

vt 0.0829 0.9849 0.0000
vt 0.0829 0.6269 0.0000
vt 0.6198 0.6269 0.0000
vt 0.6198 0.9849 0.0000
vt 0.9777 0.6269 0.0000
vt 0.9777 0.9849 0.0000
vt 0.4647 0.2592 0.0000
vt 0.4647 0.0863 0.0000
vt 0.6406 0.0863 0.0000
vt 0.6406 0.2592 0.0000
vt 0.0846 0.0716 0.0000
vt 0.4426 0.0716 0.0000
vt 0.4426 0.6085 0.0000
vt 0.0846 0.6085 0.0000
vt 0.0460 0.5934 0.0000
vt 0.0354 0.6040 0.0000
vt 0.0354 0.0671 0.0000
vt 0.0460 0.0777 0.0000
vt 0.0354 0.4039 0.0000
vt 0.0249 0.4145 0.0000
vt 0.0249 0.0565 0.0000
vt 0.0728 0.9873 0.0000
vt 0.0540 0.9873 0.0000
vt 0.0540 0.4715 0.0000
vt 0.0728 0.4715 0.0000
vt 0.0540 0.1347 0.0000
vt 0.0728 0.1347 0.0000
vt 0.9802 0.2745 0.0000
vt 0.9355 0.3564 0.0000
vt 0.7596 0.3564 0.0000
vt 0.4644 0.2745 0.0000
vt 0.9802 0.6113 0.0000
vt 0.9355 0.5293 0.0000
vt 0.7596 0.5293 0.0000
vt 0.4644 0.6113 0.0000
vt 0.6692 0.0863 0.0000
vt 0.6692 0.2622 0.0000
vt 0.6406 0.2622 0.0000
vt 0.6692 0.2592 0.0000
vt 0.9699 0.0654 0.0000
vt 0.9569 0.0524 0.0000
vt 0.4221 0.0524 0.0000
vt 0.4091 0.0654 0.0000
vt 0.4172 0.0439 0.0000
vt 0.4172 0.0229 0.0000
vt 0.9780 0.0229 0.0000
vt 0.9780 0.0439 0.0000
vt 0.0194 0.4258 0.0000
vt 0.0325 0.4127 0.0000
vt 0.0325 0.9736 0.0000
vt 0.0194 0.9605 0.0000
vt 0.9830 0.0785 0.0000
vt 0.6142 0.0654 0.0000
vt 0.6011 0.0785 0.0000
vt 0.0353 0.0439 0.0000
vt 0.0353 0.0229 0.0000
vt 0.0345 0.6178 0.0000
vt 0.0476 0.6047 0.0000
vt 0.0476 0.9866 0.0000
vt 0.0345 0.9736 0.0000
# 60 texture coords

g edge_01
usemtl _edge_01_quads_Newedge_01
s 1
f 1/1/1 2/2/1 3/3/1 
f 3/3/1 4/4/1 1/1/1 
s 2
f 4/4/2 3/3/2 5/5/2 
f 5/5/2 6/6/2 4/4/2 
s 1
f 6/1/3 5/2/3 7/3/3 
f 7/3/3 8/4/3 6/1/3 
s 2
f 8/4/4 7/3/4 2/5/4 
f 2/5/4 1/6/4 8/4/4 
s 1
f 9/7/5 10/8/5 11/9/5 
f 11/9/5 12/10/5 9/7/5 
s 4
f 2/11/6 7/12/6 5/13/6 
f 5/13/6 3/14/6 2/11/6 
f 13/15/5 1/16/5 4/17/5 
f 4/17/5 14/18/5 13/15/5 
f 14/19/5 4/20/5 6/21/5 
f 6/21/5 15/17/5 14/19/5 
f 15/15/5 6/16/5 8/17/5 
f 8/17/5 16/18/5 15/15/5 
f 16/19/5 8/20/5 1/21/5 
f 1/21/5 13/17/5 16/19/5 
s 1
f 17/22/3 13/23/3 14/24/3 
f 14/24/3 18/25/3 17/22/3 
s 2
f 18/25/4 14/24/4 15/26/4 
f 15/26/4 19/27/4 18/25/4 
s 1
f 19/22/1 15/23/1 16/24/1 
f 16/24/1 20/25/1 19/22/1 
s 2
f 20/25/2 16/24/2 13/26/2 
f 13/26/2 17/27/2 20/25/2 
s 4
f 18/28/5 21/29/5 22/30/5 
f 22/30/5 17/31/5 18/28/5 
f 21/29/5 18/28/5 19/32/5 
f 19/32/5 23/33/5 21/29/5 
f 24/34/5 23/33/5 19/32/5 
f 19/32/5 20/35/5 24/34/5 
f 24/34/5 20/35/5 17/31/5 
f 17/31/5 22/30/5 24/34/5 
s 2
f 10/9/1 22/36/1 21/37/1 
f 21/37/1 11/38/1 10/9/1 
s 8
f 11/9/2 21/36/2 23/39/2 
f 23/39/2 12/10/2 11/9/2 
s 2
f 12/9/3 23/36/3 24/37/3 
f 24/37/3 9/38/3 12/9/3 
s 8
f 9/9/4 24/36/4 22/39/4 
f 22/39/4 10/10/4 9/9/4 
s 1
f 25/40/7 26/41/6 27/42/6 
f 27/42/6 28/43/7 25/40/7 
f 29/44/8 25/45/7 28/46/7 
f 28/46/7 30/47/8 29/44/8 
f 31/48/5 29/49/8 30/50/8 
f 30/50/8 32/51/5 31/48/5 
f 33/52/9 34/40/6 26/53/6 
f 26/53/6 25/54/7 33/52/9 
f 28/52/7 27/40/6 35/53/6 
f 35/53/6 36/54/9 28/52/7 
s 2
f 30/55/4 28/56/4 36/45/4 
f 36/45/4 37/44/4 30/55/4 
s 1
f 32/57/5 30/58/8 37/59/10 
f 37/59/10 38/60/5 32/57/5 
s 2
f 39/55/2 33/56/2 25/45/2 
f 25/45/2 29/44/2 39/55/2 
s 1
f 36/40/9 35/41/6 34/42/6 
f 34/42/6 33/43/9 36/40/9 
f 37/44/10 36/45/9 33/46/9 
f 33/46/9 39/47/10 37/44/10 
f 38/48/5 37/49/10 39/50/10 
f 39/50/10 40/51/5 38/48/5 
f 40/57/5 39/58/10 29/59/8 
f 29/59/8 31/60/5 40/57/5 
# 68 faces

